<svg width="379" height="87" viewBox="0 0 379 87" fill="none" xmlns="http://www.w3.org/2000/svg">
<g clip-path="url(#clip0_1_4)">
<path d="M3.375 17.6364H21.0682L33.2386 47.2955H33.8523L46.0227 17.6364H63.7159V70H49.8068V39.7273H49.3977L37.7386 69.5909H29.3523L17.6932 39.5227H17.2841V70H3.375V17.6364ZM96.1236 52.8182V30.7273H110.237V70H96.8395V62.5341H96.4304C95.5781 65.0398 94.0866 67 91.956 68.4148C89.8253 69.8125 87.294 70.5114 84.3622 70.5114C81.6179 70.5114 79.2145 69.8807 77.152 68.6193C75.1065 67.358 73.5128 65.6193 72.3707 63.4034C71.2457 61.1875 70.6747 58.6477 70.6577 55.7841V30.7273H84.7713V52.8182C84.7884 54.7614 85.2827 56.2869 86.2543 57.3949C87.2429 58.5028 88.6236 59.0568 90.3963 59.0568C91.5724 59.0568 92.5866 58.8097 93.4389 58.3153C94.3082 57.804 94.973 57.0881 95.4332 56.1676C95.9105 55.2301 96.1406 54.1136 96.1236 52.8182ZM153.313 43.5114H140.325C140.256 42.7102 139.975 42.0199 139.481 41.4403C138.987 40.8608 138.347 40.4176 137.563 40.1108C136.796 39.7869 135.944 39.625 135.006 39.625C133.796 39.625 132.756 39.8466 131.887 40.2898C131.018 40.733 130.592 41.3636 130.609 42.1818C130.592 42.7614 130.839 43.2983 131.35 43.7926C131.879 44.2869 132.893 44.6705 134.393 44.9432L142.37 46.375C146.393 47.108 149.384 48.3437 151.344 50.0824C153.322 51.804 154.319 54.1136 154.336 57.0114C154.319 59.8068 153.484 62.2358 151.83 64.2983C150.194 66.3437 147.952 67.929 145.106 69.054C142.276 70.1619 139.046 70.7159 135.415 70.7159C129.415 70.7159 124.719 69.4886 121.327 67.0341C117.952 64.5795 116.069 61.3409 115.677 57.3182H129.688C129.876 58.5625 130.489 59.5256 131.529 60.2074C132.586 60.8722 133.915 61.2045 135.518 61.2045C136.813 61.2045 137.879 60.983 138.714 60.5398C139.566 60.0966 140.001 59.4659 140.018 58.6477C140.001 57.8977 139.626 57.3011 138.893 56.858C138.177 56.4148 137.052 56.0568 135.518 55.7841L128.563 54.5568C124.558 53.858 121.558 52.5284 119.563 50.5682C117.569 48.608 116.58 46.0852 116.597 43C116.58 40.2727 117.296 37.9631 118.745 36.071C120.211 34.1619 122.299 32.7131 125.009 31.7244C127.737 30.7188 130.967 30.2159 134.7 30.2159C140.376 30.2159 144.85 31.392 148.123 33.7443C151.413 36.0966 153.143 39.3523 153.313 43.5114ZM159.744 70V30.7273H173.857V70H159.744ZM166.8 26.6364C164.891 26.6364 163.255 26.0057 161.891 24.7443C160.528 23.483 159.846 21.9659 159.846 20.1932C159.846 18.4205 160.528 16.9034 161.891 15.642C163.255 14.3807 164.891 13.75 166.8 13.75C168.727 13.75 170.363 14.3807 171.71 15.642C173.073 16.9034 173.755 18.4205 173.755 20.1932C173.755 21.9659 173.073 23.483 171.71 24.7443C170.363 26.0057 168.727 26.6364 166.8 26.6364ZM199.969 70.7159C195.707 70.7159 192.06 69.8722 189.026 68.1847C185.991 66.4801 183.665 64.1108 182.045 61.0767C180.426 58.0256 179.616 54.4886 179.616 50.4659C179.616 46.4432 180.426 42.9148 182.045 39.8807C183.665 36.8295 185.991 34.4602 189.026 32.7727C192.06 31.0682 195.707 30.2159 199.969 30.2159C203.821 30.2159 207.153 30.9148 209.966 32.3125C212.795 33.6932 214.986 35.6534 216.537 38.1932C218.088 40.7159 218.872 43.6818 218.889 47.0909H205.798C205.611 45.0284 205.014 43.4602 204.009 42.3864C203.02 41.2955 201.741 40.75 200.173 40.75C198.946 40.75 197.872 41.108 196.952 41.8239C196.031 42.5227 195.315 43.5881 194.804 45.0199C194.293 46.4347 194.037 48.2159 194.037 50.3636C194.037 52.5114 194.293 54.3011 194.804 55.733C195.315 57.1477 196.031 58.2131 196.952 58.929C197.872 59.6278 198.946 59.9773 200.173 59.9773C201.213 59.9773 202.134 59.7386 202.935 59.2614C203.736 58.767 204.384 58.0511 204.878 57.1136C205.389 56.1591 205.696 55 205.798 53.6364H218.889C218.838 57.0966 218.045 60.1136 216.511 62.6875C214.977 65.2443 212.804 67.2216 209.991 68.6193C207.196 70.017 203.855 70.7159 199.969 70.7159ZM243.633 70.7159C239.371 70.7159 235.724 69.8722 232.69 68.1847C229.656 66.4801 227.329 64.1108 225.71 61.0767C224.09 58.0256 223.281 54.4886 223.281 50.4659C223.281 46.4432 224.09 42.9148 225.71 39.8807C227.329 36.8295 229.656 34.4602 232.69 32.7727C235.724 31.0682 239.371 30.2159 243.633 30.2159C247.894 30.2159 251.542 31.0682 254.576 32.7727C257.61 34.4602 259.937 36.8295 261.556 39.8807C263.175 42.9148 263.985 46.4432 263.985 50.4659C263.985 54.4886 263.175 58.0256 261.556 61.0767C259.937 64.1108 257.61 66.4801 254.576 68.1847C251.542 69.8722 247.894 70.7159 243.633 70.7159ZM243.735 60.2841C244.928 60.2841 245.96 59.8835 246.829 59.0824C247.698 58.2812 248.371 57.1392 248.849 55.6562C249.326 54.1733 249.565 52.4091 249.565 50.3636C249.565 48.3011 249.326 46.5369 248.849 45.071C248.371 43.5881 247.698 42.446 246.829 41.6449C245.96 40.8437 244.928 40.4432 243.735 40.4432C242.474 40.4432 241.391 40.8437 240.488 41.6449C239.585 42.446 238.894 43.5881 238.417 45.071C237.94 46.5369 237.701 48.3011 237.701 50.3636C237.701 52.4091 237.94 54.1733 238.417 55.6562C238.894 57.1392 239.585 58.2812 240.488 59.0824C241.391 59.8835 242.474 60.2841 243.735 60.2841Z" fill="black"/>
<path d="M284.591 17.6364V70H270.375V17.6364H284.591ZM305.646 47.9091V70H291.533V30.7273H304.93V38.1932H305.339C306.192 35.7045 307.692 33.7528 309.839 32.3381C312.004 30.9233 314.527 30.2159 317.408 30.2159C320.186 30.2159 322.598 30.8551 324.643 32.1335C326.706 33.3949 328.3 35.1335 329.425 37.3494C330.567 39.5653 331.129 42.0966 331.112 44.9432V70H316.999V47.9091C317.016 45.9659 316.521 44.4403 315.516 43.3324C314.527 42.2244 313.146 41.6705 311.374 41.6705C310.214 41.6705 309.2 41.9261 308.331 42.4375C307.479 42.9318 306.822 43.6477 306.362 44.5852C305.902 45.5057 305.663 46.6136 305.646 47.9091ZM350.761 60.6932L350.864 43.9205H352.705L362.216 30.7273H378.068L362.114 51.2841H358.125L350.761 60.6932ZM338.08 70V17.6364H352.193V70H338.08ZM362.318 70L353.318 54.4545L362.523 44.4318L378.477 70H362.318Z" fill="#AC0F80"/>
</g>
<defs>
<clipPath id="clip0_1_4">
<rect width="379" height="87" fill="white"/>
</clipPath>
</defs>
</svg>
